<!-- Uploaded to: SVG Repo, www.svgrepo.com, Transformed by: SVG Repo Mixer Tools -->
<svg height="800px" width="800px" version="1.1" id="Capa_1" xmlns="http://www.w3.org/2000/svg"
     viewBox="0 0 453.944 453.944" xml:space="preserve" fill="#5c5fca"
     stroke-width="1.7">

<g id="SVGRepo_bgCarrier" stroke-width="0"/>

<g id="SVGRepo_tracerCarrier" stroke-linecap="round" stroke-linejoin="round"/>

<g id="SVGRepo_iconCarrier"> <path  style="fill:#9898d7;" d="M329.434,40.535c-2.308-2.309-5.395-3.535-8.535-3.535c-1.554,0-3.122,0.301-4.615,0.919 c-4.509,1.868-7.449,6.268-7.449,11.148v41.284c0,4.911-3.809,8.985-8.709,9.305c-3.999,0.261-7.98,0.562-11.942,0.904 c-30.808,2.664-60.464,7.753-88.051,15.079v0c-25.391,6.742-49.029,15.378-70.195,25.761c-45.395,22.269-76.927,51.273-92.47,84.274 c-1.608,3.414-3.045,6.871-4.308,10.367c-3.529,9.767-5.682,19.846-6.453,30.167c3.714,49.73,40.023,93.799,103.231,124.807 c54.238,26.608,124.701,41.746,199.323,42.929c0.049,0,0.099,0.001,0.148,0.001c2.445,0,4.795-0.961,6.541-2.679 c1.781-1.752,2.786-4.147,2.786-6.646v-54.953c-0.001-5.083-4.069-9.224-9.152-9.318c-60.345-1.118-118.134-13.246-159.749-33.661 c-32.123-15.757-52.88-36.162-52.88-51.98c0-0.494,0.02-0.994,0.061-1.497c0.181-2.258,0.777-4.604,1.737-7.006 c-1.173-2.936-1.798-5.785-1.798-8.498c0-0.494,0.02-0.994,0.061-1.497c1.248-15.592,21.7-35.217,52.819-50.484 c9.335-4.579,19.49-8.737,30.298-12.452c29.088-9.997,62.954-16.752,98.608-19.666c0.253-0.021,0.507-0.031,0.759-0.031 c2.333,0,4.59,0.875,6.32,2.468c1.916,1.765,3.016,4.251,3.016,6.857v17v21.408c0,4.881,2.94,9.281,7.449,11.148 c1.493,0.619,3.06,0.919,4.615,0.919c3.14,0,6.227-1.227,8.535-3.535l94.622-94.622c0.011-0.011,0.019-0.022,0.03-0.033 c-0.01-0.011-0.019-0.022-0.03-0.033L329.434,40.535z"/> <path style="fill:#5c5fca;" d="M320.899,20c3.14,0,6.227,1.227,8.535,3.535l94.622,94.622c4.712,4.713,4.712,12.354,0,17.066 l-94.622,94.622c-2.308,2.309-5.395,3.535-8.535,3.535c-1.555,0-3.122-0.301-4.615-0.919c-4.509-1.868-7.449-6.268-7.449-11.148 v-38.408c0-2.605-1.099-5.092-3.016-6.857c-1.73-1.592-3.988-2.468-6.32-2.468c-0.252,0-0.505,0.01-0.759,0.031 c-35.654,2.913-69.519,9.669-98.608,19.666c-10.809,3.715-20.964,7.873-30.298,12.452c-31.119,15.267-51.572,34.892-52.819,50.484 c-0.04,0.503-0.061,1.002-0.061,1.497c0,15.818,20.757,36.223,52.88,51.98c41.616,20.416,99.404,32.543,159.749,33.661 c5.083,0.094,9.152,4.236,9.152,9.32v71.951c0,2.499-1.005,4.893-2.786,6.646c-1.746,1.718-4.096,2.679-6.541,2.679 c-0.049,0-0.099,0-0.148-0.001c-74.622-1.183-145.085-16.321-199.323-42.929C63.15,358.25,26.369,310.908,26.369,257.708 c0-13.3,2.299-26.234,6.791-38.666c1.263-3.497,2.7-6.953,4.308-10.367c15.543-33.001,47.075-62.005,92.47-84.274 c21.166-10.383,44.804-19.019,70.194-25.761v0c27.587-7.326,57.243-12.415,88.051-15.079c3.962-0.342,7.943-0.643,11.942-0.904 c4.901-0.319,8.709-4.394,8.709-9.305V32.068c0-4.881,2.94-9.281,7.449-11.148C317.777,20.301,319.345,20,320.899,20 M320.899,0 c-4.231,0-8.359,0.822-12.271,2.443c-12.023,4.979-19.793,16.608-19.793,29.625v31.367c-0.794,0.065-1.585,0.132-2.372,0.2 c-31.916,2.76-62.688,8.034-91.463,15.675c-26.839,7.126-51.693,16.256-73.87,27.135c-24.218,11.88-45.115,25.776-62.11,41.302 c-17.426,15.919-30.765,33.551-39.645,52.406c-1.867,3.964-3.558,8.034-5.025,12.094c-5.295,14.654-7.98,29.95-7.98,45.46 c0,31.025,10.411,60.158,30.945,86.587c19.624,25.259,47.824,47.019,83.815,64.675c56.612,27.773,130.415,43.744,207.814,44.971 c0.15,0.002,0.308,0.003,0.465,0.003c7.745,0,15.05-2.992,20.57-8.425c5.565-5.476,8.757-13.094,8.757-20.9v-71.951 c0-7.733-2.984-15.029-8.401-20.545c-5.414-5.513-12.652-8.627-20.38-8.771c-57.365-1.063-112.516-12.588-151.312-31.62 c-30.401-14.913-41.104-30.011-41.679-34.024c0.574-4.012,11.277-19.11,41.679-34.025c8.467-4.153,17.884-8.021,27.99-11.494 c24.31-8.354,52.521-14.368,82.202-17.556v26.678c0,13.017,7.77,24.646,19.796,29.626c3.91,1.62,8.038,2.442,12.268,2.442 c8.57-0.001,16.623-3.338,22.679-9.395l94.62-94.62c12.503-12.502,12.503-32.846,0.001-45.35L343.576,9.393 C337.52,3.336,329.466,0,320.899,0L320.899,0z"/> </g>
</svg>
